<?xml version="1.0" encoding="utf-8"?>
<!-- Generator: Adobe Illustrator 23.0.5, SVG Export Plug-In . SVG Version: 6.00 Build 0)  -->
<svg version="1.1"
	 id="svg8" xmlns:cc="http://creativecommons.org/ns#" xmlns:dc="http://purl.org/dc/elements/1.1/" xmlns:inkscape="http://www.inkscape.org/namespaces/inkscape" xmlns:rdf="http://www.w3.org/1999/02/22-rdf-syntax-ns#" xmlns:sodipodi="http://sodipodi.sourceforge.net/DTD/sodipodi-0.dtd" xmlns:svg="http://www.w3.org/2000/svg"
	 xmlns="http://www.w3.org/2000/svg" xmlns:xlink="http://www.w3.org/1999/xlink" x="0px" y="0px" viewBox="0 0 220 179"
	 style="enable-background:new 0 0 220 179;" xml:space="preserve">
<style type="text/css">
	.st0{fill:#138A9E;}
	.st1{fill:#2AA6BA;}
	.st2{fill:#34BBD1;}
	.st3{fill:#FFFFFF;}
</style>
<sodipodi:namedview  bordercolor="#666666" borderopacity="1.0" id="base" inkscape:current-layer="layer1" inkscape:cx="-32.576459" inkscape:cy="657.36819" inkscape:document-units="mm" inkscape:pageopacity="0.0" inkscape:pageshadow="2" inkscape:window-height="1017" inkscape:window-maximized="1" inkscape:window-width="1920" inkscape:window-x="-8" inkscape:window-y="-8" inkscape:zoom="0.47392786" pagecolor="#ffffff" showgrid="false" units="px">
	</sodipodi:namedview>
<g id="layer1" transform="translate(0,-32.416674)" inkscape:groupmode="layer" inkscape:label="Layer 1">
	<path id="rect4865" inkscape:connector-curvature="0" class="st0" d="M136.6,135.8c-2.7,2.7-2.7,6.9,0,9.6l21.1,21.1
		c1.3,0.5,2.9,0.2,3.9-0.9l22.4-22.4c1.5-1.5,1.5-3.8,0-5.3l-22.4-22.4c-1.1-1.1-2.6-1.4-3.9-0.9L136.6,135.8z M160.1,112.2
		c1.2,0.2,2.3,0.8,3.1,1.7l22.4,22.4c2.4,2.4,2.4,6.2,0,8.6l-22.4,22.4c-0.9,0.9-2,1.4-3.1,1.7l7.3,7.3c2.7,2.7,6.9,2.7,9.6,0
		l30.8-30.8c2.7-2.7,2.7-6.9,0-9.6L177,105c-2.7-2.7-6.9-2.7-9.6,0L160.1,112.2z"/>
	<path id="rect4859" class="st0" d="M10.6,124.6l12.2-12.2c1.1-1.1,2.8-1.1,3.8,0l12.2,12.2c1.1,1.1,1.1,2.8,0,3.8l-12.2,12.2
		c-1.1,1.1-2.8,1.1-3.8,0l-12.2-12.2C9.6,127.3,9.6,125.6,10.6,124.6z"/>
	<path id="rect4861" class="st0" d="M97.2,61.7l19.6-19.6c1.7-1.7,4.4-1.7,6.1,0l19.6,19.6c1.7,1.7,1.7,4.4,0,6.1l-19.6,19.6
		c-1.7,1.7-4.4,1.7-6.1,0L97.2,67.8C95.5,66.2,95.5,63.4,97.2,61.7z"/>
	<path id="rect4863" class="st0" d="M45.1,165.2l23.8-23.8c2-2,5.4-2,7.4,0l23.8,23.8c2,2,2,5.4,0,7.4l-23.8,23.8c-2,2-5.4,2-7.4,0
		l-23.8-23.8C43.1,170.5,43.1,167.2,45.1,165.2z"/>
	<path id="rect4867" inkscape:connector-curvature="0" class="st1" d="M37.3,83.7c-2.3,2.3-2.3,6,0,8.2l22.5,22.5
		c2.3,2.3,6,2.3,8.2,0L90.5,92c2.3-2.3,2.3-5.9,0-8.2L68,61.3c-2.3-2.3-6-2.3-8.2,0L37.3,83.7z M38.5,85L61,62.5
		c1.6-1.6,4.1-1.6,5.8,0L89.2,85c1.6,1.6,1.6,4.1,0,5.8l-22.5,22.5c-1.6,1.6-4.1,1.6-5.8,0L38.5,90.7C36.9,89.1,36.9,86.6,38.5,85
		L38.5,85z"/>
	<path id="rect4857" class="st2" d="M47.5,118.7L97,69.2c4.3-4.3,11.2-4.3,15.4,0l49.5,49.5c4.3,4.3,4.3,11.2,0,15.4l-49.5,49.5
		c-4.3,4.3-11.2,4.3-15.4,0l-49.5-49.5C43.2,129.9,43.2,123,47.5,118.7z"/>
	<path id="rect4869" inkscape:connector-curvature="0" class="st2" d="M32.5,115.9c-5.8,5.8-5.8,15.1,0,20.9l61.8,61.8
		c5.8,5.8,15.1,5.8,20.9,0l61.8-61.8c5.8-5.8,5.8-15.1,0-20.9l-61.8-61.8c-5.8-5.8-15.1-5.8-20.9,0l-9.7,9.7l1.6,1.6l9.7-9.7
		c4.9-4.9,12.7-4.9,17.6,0l61.8,61.8c4.9,4.9,4.9,12.7,0,17.6L113.5,197c-4.9,4.9-12.7,4.9-17.6,0l-61.8-61.8
		c-4.9-4.9-4.9-12.7,0-17.6l49-49L81.4,67L32.5,115.9z"/>
	<g id="flowRoot4904" transform="matrix(0.76181329,0,0,0.76181329,81.479183,107.60939)">
		<path id="path5096" inkscape:connector-curvature="0" class="st3" d="M-11.8,13.1H7.5c1.1,0,2,0.4,2.7,1.1
			c0.7,0.7,1.1,1.7,1.1,2.7v15.4c0,1.1-0.4,2-1.1,2.7s-1.7,1.1-2.7,1.1h-19.3V13.1z M8.8,32.4V17c0-0.3-0.1-0.6-0.4-0.9
			c-0.2-0.3-0.5-0.4-0.9-0.4H-7.9c-0.3,0-0.6,0.1-0.9,0.4C-9,16.4-9.2,16.7-9.2,17v15.4c0,0.3,0.1,0.6,0.4,0.9
			c0.3,0.2,0.6,0.4,0.9,0.4H7.5c0.3,0,0.6-0.1,0.9-0.4C8.6,33.1,8.8,32.8,8.8,32.4z"/>
		<path id="path5098" inkscape:connector-curvature="0" class="st3" d="M28.3,33.7l11.8-20.6h3.1L29.8,36.3h-3L13.4,13.1h3.1
			L28.3,33.7z"/>
		<path id="path5100" inkscape:connector-curvature="0" class="st3" d="M59.5,24.6l9.6-11.4h3.6v23.1H70V16.1L59.5,28.7L48.9,16.1
			v20.2h-2.6V13.1h3.6L59.5,24.6z"/>
	</g>
</g>
</svg>
