<svg height="512" viewBox="0 0 192 192" width="512" xmlns="http://www.w3.org/2000/svg" xmlns:xlink="http://www.w3.org/1999/xlink"><linearGradient id="New_Gradient_Swatch_2" gradientUnits="userSpaceOnUse" x1="52.692" x2="75.308" y1="75.308" y2="52.692"><stop offset="0" stop-color="#34cdfa"/><stop offset="1" stop-color="#e8d9f1"/></linearGradient><rect fill="#ccf2fe" height="128" rx="8" width="160" y="24"/><path d="m160 144v-42.245l-35-28a8 8 0 0 0 -10.118.1l-44.339 36.945-35.572-14.228a8 8 0 0 0 -6.549.273l-28.422 14.211v32.944a8 8 0 0 0 8 8h144a8 8 0 0 0 8-8z" fill="#67d9fb"/><circle cx="64" cy="64" fill="url(#New_Gradient_Swatch_2)" r="16"/><path d="m179.736 117.74c-5.08-4.155-18.529-11.751-38.736 1.424-20.211-13.176-33.657-5.578-38.736-1.424-10.7 8.751-14.476 25.726-8.419 37.838 11.1 22.2 42.8 35.287 44.143 35.833a8 8 0 0 0 6.024 0c1.344-.546 33.042-13.632 44.143-35.833 6.057-12.112 2.28-29.087-8.419-37.838z" fill="#ccf2fe"/><path d="m158 184a7.986 7.986 0 0 1 -3.012-.589c-1.344-.546-33.042-13.632-44.143-35.833-5.6-11.2-2.788-26.552 6.126-35.721a26.642 26.642 0 0 0 -14.707 5.883c-10.7 8.751-14.476 25.726-8.419 37.838 11.1 22.2 42.8 35.287 44.143 35.833a8 8 0 0 0 6.024 0 118.776 118.776 0 0 0 14.6-7.441c-.201.016-.406.03-.612.03z" fill="#99e6fd"/></svg>